<?xml version="1.0" encoding="UTF-8" standalone="no"?>
<!DOCTYPE svg PUBLIC "-//W3C//DTD SVG 1.1//EN"
 "http://www.w3.org/Graphics/SVG/1.1/DTD/svg11.dtd">
<!-- Generated by graphviz version 2.24.0 (20090616.2323)
 -->
<!-- Title: G Pages: 1 -->
<svg width="590pt" height="44pt"
 viewBox="0.00 0.00 590.00 44.00" xmlns="http://www.w3.org/2000/svg" xmlns:xlink="http://www.w3.org/1999/xlink">
<g id="graph1" class="graph" transform="scale(1 1) rotate(0) translate(4 40)">
<title>G</title>
<polygon fill="white" stroke="white" points="-4,5 -4,-40 587,-40 587,5 -4,5"/>
<!-- 方腊 -->
<g id="node1" class="node"><title>方腊</title>
<ellipse fill="none" stroke="black" cx="27" cy="-18" rx="27" ry="18"/>
<text text-anchor="middle" x="27" y="-11.9" font-family="Times New Roman,serif" font-size="14.00">方腊</text>
</g>
<!-- 方珺 -->
<g id="node3" class="node"><title>方珺</title>
<ellipse fill="none" stroke="black" cx="99" cy="-18" rx="27" ry="18"/>
<text text-anchor="middle" x="99" y="-11.9" font-family="Times New Roman,serif" font-size="14.00">方珺</text>
</g>
<!-- 父女 -->
<g id="node4" class="node"><title>父女</title>
<ellipse fill="none" stroke="black" cx="171" cy="-18" rx="27" ry="18"/>
<text text-anchor="middle" x="171" y="-11.9" font-family="Times New Roman,serif" font-size="14.00">父女</text>
</g>
<!-- 程素娥 -->
<g id="node6" class="node"><title>程素娥</title>
<ellipse fill="none" stroke="black" cx="249" cy="-18" rx="33.2417" ry="18"/>
<text text-anchor="middle" x="249" y="-11.9" font-family="Times New Roman,serif" font-size="14.00">程素娥</text>
</g>
<!-- 主属 -->
<g id="node7" class="node"><title>主属</title>
<ellipse fill="none" stroke="black" cx="327" cy="-18" rx="27" ry="18"/>
<text text-anchor="middle" x="327" y="-11.9" font-family="Times New Roman,serif" font-size="14.00">主属</text>
</g>
<!-- 师徒 -->
<g id="node9" class="node"><title>师徒</title>
<ellipse fill="none" stroke="black" cx="399" cy="-18" rx="27" ry="18"/>
<text text-anchor="middle" x="399" y="-11.9" font-family="Times New Roman,serif" font-size="14.00">师徒</text>
</g>
<!-- 程青霜 -->
<g id="node10" class="node"><title>程青霜</title>
<ellipse fill="none" stroke="black" cx="477" cy="-18" rx="33.2417" ry="18"/>
<text text-anchor="middle" x="477" y="-11.9" font-family="Times New Roman,serif" font-size="14.00">程青霜</text>
</g>
<!-- 花名 -->
<g id="node12" class="node"><title>花名</title>
<ellipse fill="none" stroke="black" cx="555" cy="-18" rx="27" ry="18"/>
<text text-anchor="middle" x="555" y="-11.9" font-family="Times New Roman,serif" font-size="14.00">花名</text>
</g>
</g>
</svg>
