<?xml version="1.0" encoding="UTF-8" standalone="no"?>
<!DOCTYPE svg PUBLIC "-//W3C//DTD SVG 1.1//EN"
 "http://www.w3.org/Graphics/SVG/1.1/DTD/svg11.dtd">
<!-- Generated by graphviz version 2.28.0 (20110507.0327)
 -->
<!-- Title: g Pages: 1 -->
<svg width="1867pt" height="1147pt"
 viewBox="0.00 0.00 1867.04 1147.09" xmlns="http://www.w3.org/2000/svg" xmlns:xlink="http://www.w3.org/1999/xlink">
<g id="graph1" class="graph" transform="scale(1 1) rotate(0) translate(4 1143.09)">
<title>g</title>
<polygon fill="white" stroke="white" points="-4,5 -4,-1143.09 1864.04,-1143.09 1864.04,5 -4,5"/>
<!-- 兇手 -->
<g id="node1" class="node"><title>兇手</title>
<ellipse fill="none" stroke="black" cx="528.136" cy="-945.772" rx="33.2209" ry="18"/>
<text text-anchor="middle" x="528.136" y="-942.072" font-family="Times New Roman,serif" font-size="14.00">兇手</text>
</g>
<!-- 卓不凡 -->
<g id="node3" class="node"><title>卓不凡</title>
<ellipse fill="none" stroke="black" cx="623.081" cy="-775.906" rx="44.2946" ry="18"/>
<text text-anchor="middle" x="623.081" y="-772.206" font-family="Times New Roman,serif" font-size="14.00">卓不凡</text>
</g>
<!-- 兇手&#45;&#45;卓不凡 -->
<g id="edge2" class="edge"><title>兇手&#45;&#45;卓不凡</title>
<path fill="none" stroke="black" d="M537.939,-928.233C556.133,-895.682 594.928,-826.274 613.189,-793.604"/>
<text text-anchor="middle" x="592.539" y="-866.263" font-family="Times New Roman,serif" font-size="14.00">殺害</text>
</g>
<!-- 項頂天 -->
<g id="node5" class="node"><title>項頂天</title>
<ellipse fill="none" stroke="black" cx="316.122" cy="-756.892" rx="44.2946" ry="18"/>
<text text-anchor="middle" x="316.122" y="-753.192" font-family="Times New Roman,serif" font-size="14.00">項頂天</text>
</g>
<!-- 兇手&#45;&#45;項頂天 -->
<g id="edge4" class="edge"><title>兇手&#45;&#45;項頂天</title>
<path fill="none" stroke="black" d="M510.786,-930.315C471.326,-895.161 375.148,-809.477 334.616,-773.369"/>
<text text-anchor="middle" x="411.103" y="-861.5" font-family="Times New Roman,serif" font-size="14.00">殺害</text>
</g>
<!-- 司馬林 -->
<g id="node7" class="node"><title>司馬林</title>
<ellipse fill="none" stroke="black" cx="395.944" cy="-981.851" rx="44.2946" ry="18"/>
<text text-anchor="middle" x="395.944" y="-978.151" font-family="Times New Roman,serif" font-size="14.00">司馬林</text>
</g>
<!-- 兇手&#45;&#45;司馬林 -->
<g id="edge6" class="edge"><title>兇手&#45;&#45;司馬林</title>
<path fill="none" stroke="black" d="M498.47,-953.869C479.135,-959.146 453.751,-966.074 433.079,-971.716"/>
<text text-anchor="middle" x="469.276" y="-970.956" font-family="Times New Roman,serif" font-size="14.00">殺害</text>
</g>
<!-- 五葉 -->
<g id="node9" class="node"><title>五葉</title>
<ellipse fill="none" stroke="black" cx="731.319" cy="-1032.29" rx="33.2209" ry="18"/>
<text text-anchor="middle" x="731.319" y="-1028.59" font-family="Times New Roman,serif" font-size="14.00">五葉</text>
</g>
<!-- 兇手&#45;&#45;五葉 -->
<g id="edge8" class="edge"><title>兇手&#45;&#45;五葉</title>
<path fill="none" stroke="black" d="M554.283,-956.905C593.189,-973.472 665.917,-1004.44 704.951,-1021.06"/>
<text text-anchor="middle" x="624.569" y="-998.262" font-family="Times New Roman,serif" font-size="14.00">殺害</text>
</g>
<!-- 葉孤鴻 -->
<g id="node12" class="node"><title>葉孤鴻</title>
<ellipse fill="none" stroke="black" cx="649.033" cy="-524.904" rx="44.2946" ry="18"/>
<text text-anchor="middle" x="649.033" y="-521.204" font-family="Times New Roman,serif" font-size="14.00">葉孤鴻</text>
</g>
<!-- 卓不凡&#45;&#45;葉孤鴻 -->
<g id="edge18" class="edge"><title>卓不凡&#45;&#45;葉孤鴻</title>
<path fill="none" stroke="black" d="M624.947,-757.854C629.724,-711.655 642.352,-589.518 647.148,-543.129"/>
<text text-anchor="middle" x="618.041" y="-645.863" font-family="Times New Roman,serif" font-size="14.00">養父子</text>
</g>
<!-- 吳良材 -->
<g id="node51" class="node"><title>吳良材</title>
<ellipse fill="none" stroke="black" cx="242.71" cy="-625.356" rx="44.2946" ry="18"/>
<text text-anchor="middle" x="242.71" y="-621.656" font-family="Times New Roman,serif" font-size="14.00">吳良材</text>
</g>
<!-- 項頂天&#45;&#45;吳良材 -->
<g id="edge64" class="edge"><title>項頂天&#45;&#45;吳良材</title>
<path fill="none" stroke="black" d="M306.221,-739.153C292.21,-714.048 266.742,-668.414 252.688,-643.234"/>
<text text-anchor="middle" x="296.471" y="-678.522" font-family="Times New Roman,serif" font-size="14.00">摯友</text>
</g>
<!-- 林瀛海 -->
<g id="node20" class="node"><title>林瀛海</title>
<ellipse fill="none" stroke="black" cx="919.215" cy="-898.404" rx="44.2946" ry="18"/>
<text text-anchor="middle" x="919.215" y="-894.704" font-family="Times New Roman,serif" font-size="14.00">林瀛海</text>
</g>
<!-- 五葉&#45;&#45;林瀛海 -->
<g id="edge20" class="edge"><title>五葉&#45;&#45;林瀛海</title>
<path fill="none" stroke="black" d="M751.427,-1017.96C786.929,-992.663 860.435,-940.287 897.23,-914.069"/>
<text text-anchor="middle" x="813.844" y="-948.66" font-family="Times New Roman,serif" font-size="14.00">師徒</text>
</g>
<!-- 章鵬 -->
<g id="node10" class="node"><title>章鵬</title>
<ellipse fill="none" stroke="black" cx="845.122" cy="-414.631" rx="33.2209" ry="18"/>
<text text-anchor="middle" x="845.122" y="-410.931" font-family="Times New Roman,serif" font-size="14.00">章鵬</text>
</g>
<!-- 章鵬&#45;&#45;葉孤鴻 -->
<g id="edge10" class="edge"><title>章鵬&#45;&#45;葉孤鴻</title>
<path fill="none" stroke="black" d="M821.858,-427.714C785.032,-448.423 713.552,-488.621 675.067,-510.263"/>
<text text-anchor="middle" x="756.085" y="-478.939" font-family="Times New Roman,serif" font-size="14.00">亦敵亦友</text>
</g>
<!-- 孫秀薇 -->
<g id="node14" class="node"><title>孫秀薇</title>
<ellipse fill="none" stroke="black" cx="724.063" cy="-625.071" rx="44.2946" ry="18"/>
<text text-anchor="middle" x="724.063" y="-621.371" font-family="Times New Roman,serif" font-size="14.00">孫秀薇</text>
</g>
<!-- 章鵬&#45;&#45;孫秀薇 -->
<g id="edge28" class="edge"><title>章鵬&#45;&#45;孫秀薇</title>
<path fill="none" stroke="black" d="M835.215,-431.852C812.571,-471.216 757.215,-567.442 734.277,-607.315"/>
<text text-anchor="middle" x="767.856" y="-506.692" font-family="Times New Roman,serif" font-size="14.00">好友</text>
</g>
<!-- 方臘 -->
<g id="node23" class="node"><title>方臘</title>
<ellipse fill="none" stroke="black" cx="1204.33" cy="-327.408" rx="33.2209" ry="18"/>
<text text-anchor="middle" x="1204.33" y="-323.708" font-family="Times New Roman,serif" font-size="14.00">方臘</text>
</g>
<!-- 章鵬&#45;&#45;方臘 -->
<g id="edge48" class="edge"><title>章鵬&#45;&#45;方臘</title>
<path fill="none" stroke="black" d="M875.438,-407.27C943.178,-390.821 1106.18,-351.24 1173.96,-334.781"/>
<text text-anchor="middle" x="1026.68" y="-379.329" font-family="Times New Roman,serif" font-size="14.00">冤家</text>
</g>
<!-- 邵老六 -->
<g id="node36" class="node"><title>邵老六</title>
<ellipse fill="none" stroke="black" cx="554.677" cy="-387.522" rx="44.2946" ry="18"/>
<text text-anchor="middle" x="554.677" y="-383.822" font-family="Times New Roman,serif" font-size="14.00">邵老六</text>
</g>
<!-- 章鵬&#45;&#45;邵老六 -->
<g id="edge38" class="edge"><title>章鵬&#45;&#45;邵老六</title>
<path fill="none" stroke="black" d="M812.369,-411.574C759.85,-406.672 656.767,-397.051 598.147,-391.58"/>
<text text-anchor="middle" x="707.546" y="-408.091" font-family="Times New Roman,serif" font-size="14.00">師徒</text>
</g>
<!-- 秋月 -->
<g id="node42" class="node"><title>秋月</title>
<ellipse fill="none" stroke="black" cx="828.332" cy="-204.721" rx="33.2209" ry="18"/>
<text text-anchor="middle" x="828.332" y="-201.021" font-family="Times New Roman,serif" font-size="14.00">秋月</text>
</g>
<!-- 章鵬&#45;&#45;秋月 -->
<g id="edge44" class="edge"><title>章鵬&#45;&#45;秋月</title>
<path fill="none" stroke="black" d="M843.661,-396.37C840.478,-356.572 832.947,-262.414 829.777,-222.791"/>
<text text-anchor="middle" x="818.714" y="-306.815" font-family="Times New Roman,serif" font-size="14.00">同居</text>
</g>
<!-- 葉孤鴻&#45;&#45;孫秀薇 -->
<g id="edge12" class="edge"><title>葉孤鴻&#45;&#45;孫秀薇</title>
<path fill="none" stroke="black" d="M662.102,-542.352C675.873,-560.737 697.429,-589.514 711.143,-607.823"/>
<text text-anchor="middle" x="671.644" y="-582.416" font-family="Times New Roman,serif" font-size="14.00">互生情愫</text>
</g>
<!-- 莊秀芸 -->
<g id="node28" class="node"><title>莊秀芸</title>
<ellipse fill="none" stroke="black" cx="495.283" cy="-630.467" rx="44.2946" ry="18"/>
<text text-anchor="middle" x="495.283" y="-626.767" font-family="Times New Roman,serif" font-size="14.00">莊秀芸</text>
</g>
<!-- 葉孤鴻&#45;&#45;莊秀芸 -->
<g id="edge30" class="edge"><title>葉孤鴻&#45;&#45;莊秀芸</title>
<path fill="none" stroke="black" d="M626.346,-540.48C597.278,-560.438 547.176,-594.837 518.063,-614.826"/>
<text text-anchor="middle" x="581.221" y="-587.942" font-family="Times New Roman,serif" font-size="14.00">有情</text>
</g>
<!-- 陶駿 -->
<g id="node30" class="node"><title>陶駿</title>
<ellipse fill="none" stroke="black" cx="301.547" cy="-458.038" rx="33.2209" ry="18"/>
<text text-anchor="middle" x="301.547" y="-454.338" font-family="Times New Roman,serif" font-size="14.00">陶駿</text>
</g>
<!-- 葉孤鴻&#45;&#45;陶駿 -->
<g id="edge32" class="edge"><title>葉孤鴻&#45;&#45;陶駿</title>
<path fill="none" stroke="black" d="M608.832,-517.168C538.98,-503.727 396.609,-476.331 333.218,-464.132"/>
<text text-anchor="middle" x="466.602" y="-497.484" font-family="Times New Roman,serif" font-size="14.00">結拜兄弟</text>
</g>
<!-- 慕容情 -->
<g id="node32" class="node"><title>慕容情</title>
<ellipse fill="none" stroke="black" cx="579.198" cy="-226.386" rx="44.2946" ry="18"/>
<text text-anchor="middle" x="579.198" y="-222.686" font-family="Times New Roman,serif" font-size="14.00">慕容情</text>
</g>
<!-- 葉孤鴻&#45;&#45;慕容情 -->
<g id="edge34" class="edge"><title>葉孤鴻&#45;&#45;慕容情</title>
<path fill="none" stroke="black" d="M644.769,-506.68C632.272,-453.26 595.831,-297.486 583.406,-244.372"/>
<text text-anchor="middle" x="632.061" y="-367.711" font-family="Times New Roman,serif" font-size="14.00">有情</text>
</g>
<!-- 方珺 -->
<g id="node16" class="node"><title>方珺</title>
<ellipse fill="none" stroke="black" cx="975.965" cy="-564.367" rx="33.2209" ry="18"/>
<text text-anchor="middle" x="975.965" y="-560.667" font-family="Times New Roman,serif" font-size="14.00">方珺</text>
</g>
<!-- 孫秀薇&#45;&#45;方珺 -->
<g id="edge14" class="edge"><title>孫秀薇&#45;&#45;方珺</title>
<path fill="none" stroke="black" d="M762.048,-615.917C812.214,-603.828 899.57,-582.777 945.596,-571.685"/>
<text text-anchor="middle" x="853.374" y="-577.727" font-family="Times New Roman,serif" font-size="14.00">好友</text>
</g>
<!-- 方珺&#45;&#45;章鵬 -->
<g id="edge16" class="edge"><title>方珺&#45;&#45;章鵬</title>
<path fill="none" stroke="black" d="M961.713,-548.057C936.544,-519.254 884.512,-459.709 859.356,-430.92"/>
<text text-anchor="middle" x="896.53" y="-497.784" font-family="Times New Roman,serif" font-size="14.00">好友</text>
</g>
<!-- 方珺&#45;&#45;林瀛海 -->
<g id="edge22" class="edge"><title>方珺&#45;&#45;林瀛海</title>
<path fill="none" stroke="black" d="M968.917,-582.129C959.052,-607.853 941.409,-657.184 933.135,-700.865 920.786,-766.059 919.145,-845.229 919.085,-880.247"/>
<text text-anchor="middle" x="915.136" y="-694.157" font-family="Times New Roman,serif" font-size="14.00">拍檔</text>
</g>
<!-- 方珺&#45;&#45;方臘 -->
<g id="edge24" class="edge"><title>方珺&#45;&#45;方臘</title>
<path fill="none" stroke="black" d="M991.661,-548.08C1033.48,-504.686 1147.22,-386.659 1188.82,-343.496"/>
<text text-anchor="middle" x="1077.32" y="-429.002" font-family="Times New Roman,serif" font-size="14.00">父女</text>
</g>
<!-- 程素娥 -->
<g id="node25" class="node"><title>程素娥</title>
<ellipse fill="none" stroke="black" cx="1134.31" cy="-476.358" rx="44.2946" ry="18"/>
<text text-anchor="middle" x="1134.31" y="-472.658" font-family="Times New Roman,serif" font-size="14.00">程素娥</text>
</g>
<!-- 方珺&#45;&#45;程素娥 -->
<g id="edge26" class="edge"><title>方珺&#45;&#45;程素娥</title>
<path fill="none" stroke="black" d="M999.33,-551.381C1028.32,-535.267 1077.63,-507.863 1107.95,-491.013"/>
<text text-anchor="middle" x="1060.14" y="-531.773" font-family="Times New Roman,serif" font-size="14.00">師徒</text>
</g>
<!-- 朝英 -->
<g id="node99" class="node"><title>朝英</title>
<ellipse fill="none" stroke="black" cx="968.02" cy="-1121.09" rx="33.2209" ry="18"/>
<text text-anchor="middle" x="968.02" y="-1117.39" font-family="Times New Roman,serif" font-size="14.00">朝英</text>
</g>
<!-- 林瀛海&#45;&#45;朝英 -->
<g id="edge110" class="edge"><title>林瀛海&#45;&#45;朝英</title>
<path fill="none" stroke="black" d="M923.209,-916.627C932.383,-958.489 954.878,-1061.12 964.04,-1102.93"/>
<text text-anchor="middle" x="925.629" y="-1010.1" font-family="Times New Roman,serif" font-size="14.00">父女</text>
</g>
<!-- 方臘&#45;&#45;程素娥 -->
<g id="edge74" class="edge"><title>方臘&#45;&#45;程素娥</title>
<path fill="none" stroke="black" d="M1196.02,-345.079C1182.62,-373.592 1156.36,-429.453 1142.83,-458.245"/>
<text text-anchor="middle" x="1187.47" y="-405.857" font-family="Times New Roman,serif" font-size="14.00">主屬</text>
</g>
<!-- 玄斌 -->
<g id="node61" class="node"><title>玄斌</title>
<ellipse fill="none" stroke="black" cx="1295.81" cy="-203.563" rx="33.2209" ry="18"/>
<text text-anchor="middle" x="1295.81" y="-199.863" font-family="Times New Roman,serif" font-size="14.00">玄斌</text>
</g>
<!-- 方臘&#45;&#45;玄斌 -->
<g id="edge66" class="edge"><title>方臘&#45;&#45;玄斌</title>
<path fill="none" stroke="black" d="M1216.66,-310.706C1234.13,-287.069 1265.87,-244.104 1283.38,-220.396"/>
<text text-anchor="middle" x="1235" y="-250.878" font-family="Times New Roman,serif" font-size="14.00">主屬</text>
</g>
<!-- 龐東 -->
<g id="node63" class="node"><title>龐東</title>
<ellipse fill="none" stroke="black" cx="1303.26" cy="-65.2846" rx="33.2209" ry="18"/>
<text text-anchor="middle" x="1303.26" y="-61.5846" font-family="Times New Roman,serif" font-size="14.00">龐東</text>
</g>
<!-- 方臘&#45;&#45;龐東 -->
<g id="edge68" class="edge"><title>方臘&#45;&#45;龐東</title>
<path fill="none" stroke="black" d="M1211.13,-309.391C1229.24,-261.39 1278.52,-130.828 1296.54,-83.0808"/>
<text text-anchor="middle" x="1235.87" y="-186.441" font-family="Times New Roman,serif" font-size="14.00">主屬</text>
</g>
<!-- 朱京鵬 -->
<g id="node65" class="node"><title>朱京鵬</title>
<ellipse fill="none" stroke="black" cx="1079.6" cy="-190.802" rx="44.2946" ry="18"/>
<text text-anchor="middle" x="1079.6" y="-187.102" font-family="Times New Roman,serif" font-size="14.00">朱京鵬</text>
</g>
<!-- 方臘&#45;&#45;朱京鵬 -->
<g id="edge70" class="edge"><title>方臘&#45;&#45;朱京鵬</title>
<path fill="none" stroke="black" d="M1189.53,-311.201C1165.78,-285.193 1119.38,-234.373 1095.16,-207.845"/>
<text text-anchor="middle" x="1156.52" y="-244.018" font-family="Times New Roman,serif" font-size="14.00">主屬</text>
</g>
<!-- 白紋彪 -->
<g id="node67" class="node"><title>白紋彪</title>
<ellipse fill="none" stroke="black" cx="1156.33" cy="-67.106" rx="44.2946" ry="18"/>
<text text-anchor="middle" x="1156.33" y="-63.406" font-family="Times New Roman,serif" font-size="14.00">白紋彪</text>
</g>
<!-- 方臘&#45;&#45;白紋彪 -->
<g id="edge72" class="edge"><title>方臘&#45;&#45;白紋彪</title>
<path fill="none" stroke="black" d="M1200.95,-309.104C1192.14,-261.31 1168.51,-133.161 1159.7,-85.3897"/>
<text text-anchor="middle" x="1198.33" y="-190.538" font-family="Times New Roman,serif" font-size="14.00">主屬</text>
</g>
<!-- 馬雄烈 -->
<g id="node70" class="node"><title>馬雄烈</title>
<ellipse fill="none" stroke="black" cx="1422.52" cy="-229.265" rx="44.2946" ry="18"/>
<text text-anchor="middle" x="1422.52" y="-225.565" font-family="Times New Roman,serif" font-size="14.00">馬雄烈</text>
</g>
<!-- 方臘&#45;&#45;馬雄烈 -->
<g id="edge76" class="edge"><title>方臘&#45;&#45;馬雄烈</title>
<path fill="none" stroke="black" d="M1230.21,-315.764C1270.96,-297.434 1349.85,-261.951 1392.84,-242.615"/>
<text text-anchor="middle" x="1316.69" y="-288.867" font-family="Times New Roman,serif" font-size="14.00">主屬</text>
</g>
<!-- 陶駿&#45;&#45;項頂天 -->
<g id="edge52" class="edge"><title>陶駿&#45;&#45;項頂天</title>
<path fill="none" stroke="black" d="M302.437,-476.283C305.045,-529.763 312.65,-685.713 315.244,-738.886"/>
<text text-anchor="middle" x="326.846" y="-603.999" font-family="Times New Roman,serif" font-size="14.00">長老</text>
</g>
<!-- 陶駿&#45;&#45;邵老六 -->
<g id="edge62" class="edge"><title>陶駿&#45;&#45;邵老六</title>
<path fill="none" stroke="black" d="M331.08,-449.811C377.508,-436.877 467.472,-411.816 517.984,-397.744"/>
<text text-anchor="middle" x="420" y="-408.504" font-family="Times New Roman,serif" font-size="14.00">丐幫</text>
</g>
<!-- 陳瑞麟 -->
<g id="node48" class="node"><title>陳瑞麟</title>
<ellipse fill="none" stroke="black" cx="270.486" cy="-243.223" rx="44.2946" ry="18"/>
<text text-anchor="middle" x="270.486" y="-239.523" font-family="Times New Roman,serif" font-size="14.00">陳瑞麟</text>
</g>
<!-- 陶駿&#45;&#45;陳瑞麟 -->
<g id="edge50" class="edge"><title>陶駿&#45;&#45;陳瑞麟</title>
<path fill="none" stroke="black" d="M298.952,-440.092C293.106,-399.657 278.956,-301.798 273.096,-261.268"/>
<text text-anchor="middle" x="304.029" y="-345.016" font-family="Times New Roman,serif" font-size="14.00">心腹</text>
</g>
<!-- 陶駿&#45;&#45;吳良材 -->
<g id="edge54" class="edge"><title>陶駿&#45;&#45;吳良材</title>
<path fill="none" stroke="black" d="M295.25,-475.944C283.956,-508.064 260.377,-575.116 249.05,-607.326"/>
<text text-anchor="middle" x="290.162" y="-543.901" font-family="Times New Roman,serif" font-size="14.00">長老</text>
</g>
<!-- 胡奔濤 -->
<g id="node53" class="node"><title>胡奔濤</title>
<ellipse fill="none" stroke="black" cx="44.1961" cy="-512.06" rx="44.2946" ry="18"/>
<text text-anchor="middle" x="44.1961" y="-508.36" font-family="Times New Roman,serif" font-size="14.00">胡奔濤</text>
</g>
<!-- 陶駿&#45;&#45;胡奔濤 -->
<g id="edge56" class="edge"><title>陶駿&#45;&#45;胡奔濤</title>
<path fill="none" stroke="black" d="M270.504,-464.554C223.714,-474.376 135.141,-492.969 83.7751,-503.752"/>
<text text-anchor="middle" x="176.856" y="-469.093" font-family="Times New Roman,serif" font-size="14.00">師徒</text>
</g>
<!-- 田北神 -->
<g id="node55" class="node"><title>田北神</title>
<ellipse fill="none" stroke="black" cx="119.137" cy="-255.093" rx="44.2946" ry="18"/>
<text text-anchor="middle" x="119.137" y="-251.393" font-family="Times New Roman,serif" font-size="14.00">田北神</text>
</g>
<!-- 陶駿&#45;&#45;田北神 -->
<g id="edge58" class="edge"><title>陶駿&#45;&#45;田北神</title>
<path fill="none" stroke="black" d="M286.928,-441.773C252.942,-403.962 168.886,-310.443 134.337,-272.005"/>
<text text-anchor="middle" x="196.844" y="-365.424" font-family="Times New Roman,serif" font-size="14.00">長老</text>
</g>
<!-- 朱遠山 -->
<g id="node57" class="node"><title>朱遠山</title>
<ellipse fill="none" stroke="black" cx="97.1119" cy="-388.819" rx="44.2946" ry="18"/>
<text text-anchor="middle" x="97.1119" y="-385.119" font-family="Times New Roman,serif" font-size="14.00">朱遠山</text>
</g>
<!-- 陶駿&#45;&#45;朱遠山 -->
<g id="edge60" class="edge"><title>陶駿&#45;&#45;朱遠山</title>
<path fill="none" stroke="black" d="M273.121,-448.414C236.038,-435.858 171.21,-413.908 131.431,-400.439"/>
<text text-anchor="middle" x="207.287" y="-408.069" font-family="Times New Roman,serif" font-size="14.00">長老</text>
</g>
<!-- 燕婆婆 -->
<g id="node34" class="node"><title>燕婆婆</title>
<ellipse fill="none" stroke="black" cx="520.443" cy="-18" rx="44.2946" ry="18"/>
<text text-anchor="middle" x="520.443" y="-14.3" font-family="Times New Roman,serif" font-size="14.00">燕婆婆</text>
</g>
<!-- 慕容情&#45;&#45;燕婆婆 -->
<g id="edge36" class="edge"><title>慕容情&#45;&#45;燕婆婆</title>
<path fill="none" stroke="black" d="M574.087,-208.258C562.947,-168.748 536.591,-75.2738 525.501,-35.9381"/>
<text text-anchor="middle" x="531.775" y="-123.333" font-family="Times New Roman,serif" font-size="14.00">主屬</text>
</g>
<!-- 天山雙煞 -->
<g id="node37" class="node"><title>天山雙煞</title>
<ellipse fill="none" stroke="black" cx="993.029" cy="-700.973" rx="55.3436" ry="18"/>
<text text-anchor="middle" x="993.029" y="-697.273" font-family="Times New Roman,serif" font-size="14.00">天山雙煞</text>
</g>
<!-- 天山雙煞&#45;&#45;葉孤鴻 -->
<g id="edge40" class="edge"><title>天山雙煞&#45;&#45;葉孤鴻</title>
<path fill="none" stroke="black" d="M963.104,-685.656C897.229,-651.939 740.475,-571.707 676.719,-539.074"/>
<text text-anchor="middle" x="812.117" y="-622.258" font-family="Times New Roman,serif" font-size="14.00">死敵</text>
</g>
<!-- 陳劍南 -->
<g id="node39" class="node"><title>陳劍南</title>
<ellipse fill="none" stroke="black" cx="1572.66" cy="-506.335" rx="55.3436" ry="18"/>
<text text-anchor="middle" x="1572.66" y="-502.635" font-family="Times New Roman,serif" font-size="14.00">陳劍南</text>
</g>
<!-- 陳劍南&#45;&#45;方臘 -->
<g id="edge42" class="edge"><title>陳劍南&#45;&#45;方臘</title>
<path fill="none" stroke="black" d="M1541.57,-491.234C1469.94,-456.438 1294.43,-371.181 1229.24,-339.512"/>
<text text-anchor="middle" x="1376.99" y="-423.5" font-family="Times New Roman,serif" font-size="14.00">攻打</text>
</g>
<!-- 安卓 -->
<g id="node80" class="node"><title>安卓</title>
<ellipse fill="none" stroke="black" cx="1743.82" cy="-623.574" rx="33.2209" ry="18"/>
<text text-anchor="middle" x="1743.82" y="-619.874" font-family="Times New Roman,serif" font-size="14.00">安卓</text>
</g>
<!-- 陳劍南&#45;&#45;安卓 -->
<g id="edge88" class="edge"><title>陳劍南&#45;&#45;安卓</title>
<path fill="none" stroke="black" d="M1596.45,-522.636C1630.17,-545.727 1691.26,-587.576 1723.17,-609.428"/>
<text text-anchor="middle" x="1651.49" y="-576.797" font-family="Times New Roman,serif" font-size="14.00">主屬</text>
</g>
<!-- 黃常 -->
<g id="node82" class="node"><title>黃常</title>
<ellipse fill="none" stroke="black" cx="1825.9" cy="-496.562" rx="33.2209" ry="18"/>
<text text-anchor="middle" x="1825.9" y="-492.862" font-family="Times New Roman,serif" font-size="14.00">黃常</text>
</g>
<!-- 陳劍南&#45;&#45;黃常 -->
<g id="edge90" class="edge"><title>陳劍南&#45;&#45;黃常</title>
<path fill="none" stroke="black" d="M1627.92,-504.202C1678.13,-502.264 1750.56,-499.469 1792.47,-497.852"/>
<text text-anchor="middle" x="1713.31" y="-488.207" font-family="Times New Roman,serif" font-size="14.00">主屬</text>
</g>
<!-- 藍牙 -->
<g id="node84" class="node"><title>藍牙</title>
<ellipse fill="none" stroke="black" cx="1467.03" cy="-657.704" rx="33.2209" ry="18"/>
<text text-anchor="middle" x="1467.03" y="-654.004" font-family="Times New Roman,serif" font-size="14.00">藍牙</text>
</g>
<!-- 陳劍南&#45;&#45;藍牙 -->
<g id="edge92" class="edge"><title>陳劍南&#45;&#45;藍牙</title>
<path fill="none" stroke="black" d="M1560.33,-523.995C1539.87,-553.318 1499.15,-611.683 1478.95,-640.621"/>
<text text-anchor="middle" x="1535.54" y="-589.752" font-family="Times New Roman,serif" font-size="14.00">借助</text>
</g>
<!-- 赤焰火狐 -->
<g id="node86" class="node"><title>赤焰火狐</title>
<ellipse fill="none" stroke="black" cx="1569.91" cy="-824.029" rx="55.3436" ry="18"/>
<text text-anchor="middle" x="1569.91" y="-820.329" font-family="Times New Roman,serif" font-size="14.00">赤焰火狐</text>
</g>
<!-- 陳劍南&#45;&#45;赤焰火狐 -->
<g id="edge94" class="edge"><title>陳劍南&#45;&#45;赤焰火狐</title>
<path fill="none" stroke="black" d="M1572.5,-524.788C1572.01,-581.071 1570.55,-750.101 1570.07,-805.92"/>
<text text-anchor="middle" x="1553.28" y="-661.828" font-family="Times New Roman,serif" font-size="14.00">借助</text>
</g>
<!-- 韓世忠 -->
<g id="node88" class="node"><title>韓世忠</title>
<ellipse fill="none" stroke="black" cx="1623.94" cy="-322.115" rx="44.2946" ry="18"/>
<text text-anchor="middle" x="1623.94" y="-318.415" font-family="Times New Roman,serif" font-size="14.00">韓世忠</text>
</g>
<!-- 陳劍南&#45;&#45;韓世忠 -->
<g id="edge96" class="edge"><title>陳劍南&#45;&#45;韓世忠</title>
<path fill="none" stroke="black" d="M1577.67,-488.335C1587.47,-453.117 1609.09,-375.464 1618.91,-340.187"/>
<text text-anchor="middle" x="1616.28" y="-415.583" font-family="Times New Roman,serif" font-size="14.00">主屬</text>
</g>
<!-- 劉雪昕 -->
<g id="node90" class="node"><title>劉雪昕</title>
<ellipse fill="none" stroke="black" cx="1761.66" cy="-351.261" rx="44.2946" ry="18"/>
<text text-anchor="middle" x="1761.66" y="-347.561" font-family="Times New Roman,serif" font-size="14.00">劉雪昕</text>
</g>
<!-- 陳劍南&#45;&#45;劉雪昕 -->
<g id="edge98" class="edge"><title>陳劍南&#45;&#45;劉雪昕</title>
<path fill="none" stroke="black" d="M1593.24,-489.444C1629.89,-459.378 1705.95,-396.97 1741.95,-367.431"/>
<text text-anchor="middle" x="1656.84" y="-411.54" font-family="Times New Roman,serif" font-size="14.00">主屬</text>
</g>
<!-- 段正興 -->
<g id="node43" class="node"><title>段正興</title>
<ellipse fill="none" stroke="black" cx="1489.44" cy="-930.818" rx="44.2946" ry="18"/>
<text text-anchor="middle" x="1489.44" y="-927.118" font-family="Times New Roman,serif" font-size="14.00">段正興</text>
</g>
<!-- 完顏阿骨打 -->
<g id="node45" class="node"><title>完顏阿骨打</title>
<ellipse fill="none" stroke="black" cx="1325.59" cy="-793.695" rx="66.4165" ry="18"/>
<text text-anchor="middle" x="1325.59" y="-789.995" font-family="Times New Roman,serif" font-size="14.00">完顏阿骨打</text>
</g>
<!-- 段正興&#45;&#45;完顏阿骨打 -->
<g id="edge46" class="edge"><title>段正興&#45;&#45;完顏阿骨打</title>
<path fill="none" stroke="black" d="M1470,-914.55C1438.89,-888.514 1378.18,-837.708 1346.29,-811.019"/>
<text text-anchor="middle" x="1419.44" y="-846.329" font-family="Times New Roman,serif" font-size="14.00">敵對</text>
</g>
<!-- 完顏阿骨打&#45;&#45;天山雙煞 -->
<g id="edge100" class="edge"><title>完顏阿骨打&#45;&#45;天山雙煞</title>
<path fill="none" stroke="black" d="M1279,-780.705C1214.11,-762.612 1097.48,-730.096 1035.1,-712.703"/>
<text text-anchor="middle" x="1153.11" y="-754.742" font-family="Times New Roman,serif" font-size="14.00">招攬</text>
</g>
<!-- 完顏阿骨打&#45;&#45;藍牙 -->
<g id="edge102" class="edge"><title>完顏阿骨打&#45;&#45;藍牙</title>
<path fill="none" stroke="black" d="M1343.79,-776.195C1371.55,-749.509 1424.03,-699.051 1450.65,-673.452"/>
<text text-anchor="middle" x="1385.65" y="-707.716" font-family="Times New Roman,serif" font-size="14.00">招攬</text>
</g>
<!-- 完顏阿骨打&#45;&#45;赤焰火狐 -->
<g id="edge104" class="edge"><title>完顏阿骨打&#45;&#45;赤焰火狐</title>
<path fill="none" stroke="black" d="M1386.3,-801.232C1426.71,-806.25 1479.27,-812.776 1517.79,-817.558"/>
<text text-anchor="middle" x="1453.76" y="-795.784" font-family="Times New Roman,serif" font-size="14.00">招攬</text>
</g>
<!-- 姜華 -->
<g id="node71" class="node"><title>姜華</title>
<ellipse fill="none" stroke="black" cx="413.465" cy="-789.835" rx="33.2209" ry="18"/>
<text text-anchor="middle" x="413.465" y="-786.135" font-family="Times New Roman,serif" font-size="14.00">姜華</text>
</g>
<!-- 姜華&#45;&#45;司馬林 -->
<g id="edge86" class="edge"><title>姜華&#45;&#45;司馬林</title>
<path fill="none" stroke="black" d="M411.817,-807.899C408.477,-844.496 400.947,-927.022 397.601,-963.695"/>
<text text-anchor="middle" x="386.711" y="-881.068" font-family="Times New Roman,serif" font-size="14.00">師兄弟</text>
</g>
<!-- 姜華&#45;&#45;孫秀薇 -->
<g id="edge78" class="edge"><title>姜華&#45;&#45;孫秀薇</title>
<path fill="none" stroke="black" d="M437.321,-777.18C494.142,-747.038 637.193,-671.153 697.059,-639.395"/>
<text text-anchor="middle" x="573.048" y="-719.193" font-family="Times New Roman,serif" font-size="14.00">師徒</text>
</g>
<!-- 姜華&#45;&#45;莊秀芸 -->
<g id="edge80" class="edge"><title>姜華&#45;&#45;莊秀芸</title>
<path fill="none" stroke="black" d="M422.377,-772.476C438.032,-741.982 470.31,-679.111 486.133,-648.29"/>
<text text-anchor="middle" x="437.192" y="-697.805" font-family="Times New Roman,serif" font-size="14.00">師徒</text>
</g>
<!-- 葉秀英 -->
<g id="node75" class="node"><title>葉秀英</title>
<ellipse fill="none" stroke="black" cx="138.189" cy="-759.562" rx="44.2946" ry="18"/>
<text text-anchor="middle" x="138.189" y="-755.862" font-family="Times New Roman,serif" font-size="14.00">葉秀英</text>
</g>
<!-- 姜華&#45;&#45;葉秀英 -->
<g id="edge82" class="edge"><title>姜華&#45;&#45;葉秀英</title>
<path fill="none" stroke="black" d="M380.806,-786.243C331.103,-780.777 236.431,-770.366 181.189,-764.291"/>
<text text-anchor="middle" x="284.075" y="-761.795" font-family="Times New Roman,serif" font-size="14.00">師徒</text>
</g>
<!-- 童秀蕙 -->
<g id="node77" class="node"><title>童秀蕙</title>
<ellipse fill="none" stroke="black" cx="187.068" cy="-891.891" rx="44.2946" ry="18"/>
<text text-anchor="middle" x="187.068" y="-888.191" font-family="Times New Roman,serif" font-size="14.00">童秀蕙</text>
</g>
<!-- 姜華&#45;&#45;童秀蕙 -->
<g id="edge84" class="edge"><title>姜華&#45;&#45;童秀蕙</title>
<path fill="none" stroke="black" d="M387.934,-801.344C345.725,-820.371 261.614,-858.287 216.795,-878.49"/>
<text text-anchor="middle" x="309.343" y="-848.776" font-family="Times New Roman,serif" font-size="14.00">師徒</text>
</g>
<!-- 藍霆雷鳥 -->
<g id="node95" class="node"><title>藍霆雷鳥</title>
<ellipse fill="none" stroke="black" cx="1687.22" cy="-1015.44" rx="55.3436" ry="18"/>
<text text-anchor="middle" x="1687.22" y="-1011.74" font-family="Times New Roman,serif" font-size="14.00">藍霆雷鳥</text>
</g>
<!-- 赤焰火狐&#45;&#45;藍霆雷鳥 -->
<g id="edge106" class="edge"><title>赤焰火狐&#45;&#45;藍霆雷鳥</title>
<path fill="none" stroke="black" d="M1580.74,-841.694C1603.03,-878.066 1653.84,-960.969 1676.25,-997.541"/>
<text text-anchor="middle" x="1612.45" y="-925.842" font-family="Times New Roman,serif" font-size="14.00">主屬</text>
</g>
<!-- 暴風雪豹 -->
<g id="node97" class="node"><title>暴風雪豹</title>
<ellipse fill="none" stroke="black" cx="1535.95" cy="-1071.72" rx="55.3436" ry="18"/>
<text text-anchor="middle" x="1535.95" y="-1068.02" font-family="Times New Roman,serif" font-size="14.00">暴風雪豹</text>
</g>
<!-- 赤焰火狐&#45;&#45;暴風雪豹 -->
<g id="edge108" class="edge"><title>赤焰火狐&#45;&#45;暴風雪豹</title>
<path fill="none" stroke="black" d="M1567.41,-842.242C1561.13,-888.048 1544.74,-1007.65 1538.45,-1053.48"/>
<text text-anchor="middle" x="1534.93" y="-942.151" font-family="Times New Roman,serif" font-size="14.00">主屬</text>
</g>
</g>
</svg>
