<?xml version="1.0" encoding="UTF-8" standalone="no"?>
<!DOCTYPE svg PUBLIC "-//W3C//DTD SVG 1.1//EN"
 "http://www.w3.org/Graphics/SVG/1.1/DTD/svg11.dtd">
<!-- Generated by graphviz version 2.28.0 (20110507.0327)
 -->
<!-- Title: g Pages: 1 -->
<svg width="861pt" height="820pt"
 viewBox="0.00 0.00 861.02 819.52" xmlns="http://www.w3.org/2000/svg" xmlns:xlink="http://www.w3.org/1999/xlink">
<g id="graph1" class="graph" transform="scale(1 1) rotate(0) translate(4 815.524)">
<title>g</title>
<polygon fill="white" stroke="white" points="-4,5 -4,-815.524 858.023,-815.524 858.023,5 -4,5"/>
<!-- 0 -->
<g id="node1" class="node"><title>0</title>
<ellipse fill="none" stroke="black" cx="218.568" cy="-596.066" rx="18" ry="18"/>
<text text-anchor="middle" x="218.568" y="-593.266" font-family="Times New Roman,serif" font-size="11.00">0</text>
</g>
<!-- 1 -->
<g id="node3" class="node"><title>1</title>
<ellipse fill="none" stroke="black" cx="418.046" cy="-789.634" rx="18" ry="18"/>
<text text-anchor="middle" x="418.046" y="-786.834" font-family="Times New Roman,serif" font-size="11.00">1</text>
</g>
<!-- 0&#45;&#45;1 -->
<g id="edge2" class="edge"><title>0&#45;&#45;1</title>
<path fill="none" stroke="#0000ee" stroke-width="3" d="M231.656,-608.766C267.801,-643.84 368.708,-741.758 404.91,-776.887"/>
</g>
<!-- 2 -->
<g id="node8" class="node"><title>2</title>
<ellipse fill="none" stroke="black" cx="313.761" cy="-324.44" rx="18" ry="18"/>
<text text-anchor="middle" x="313.761" y="-321.64" font-family="Times New Roman,serif" font-size="11.00">2</text>
</g>
<!-- 0&#45;&#45;2 -->
<g id="edge47" class="edge"><title>0&#45;&#45;2</title>
<path fill="none" stroke="#ff1493" stroke-width="3" d="M225.125,-578.992C233.517,-557.021 248.406,-517.631 260.413,-483.67 278.586,-432.27 298.675,-370.999 308.184,-341.705"/>
</g>
<!-- 5 -->
<g id="node9" class="node"><title>5</title>
<ellipse fill="none" stroke="black" cx="637.81" cy="-165.549" rx="18" ry="18"/>
<text text-anchor="middle" x="637.81" y="-162.749" font-family="Times New Roman,serif" font-size="11.00">5</text>
</g>
<!-- 0&#45;&#45;5 -->
<g id="edge36" class="edge"><title>0&#45;&#45;5</title>
<path fill="none" stroke="darkorange" stroke-width="3" d="M230.012,-581.89C258.726,-546.555 336.614,-452.142 407.574,-378.934 485.902,-298.126 587.672,-208.841 624.1,-177.334"/>
</g>
<!-- 3 -->
<g id="node13" class="node"><title>3</title>
<ellipse fill="none" stroke="black" cx="695.333" cy="-717.604" rx="18" ry="18"/>
<text text-anchor="middle" x="695.333" y="-714.804" font-family="Times New Roman,serif" font-size="11.00">3</text>
</g>
<!-- 0&#45;&#45;3 -->
<g id="edge123" class="edge"><title>0&#45;&#45;3</title>
<path fill="none" stroke="#ffff00" stroke-width="3" d="M236.102,-600.535C310.861,-619.593 602.573,-693.957 677.64,-713.094"/>
</g>
<!-- 10 -->
<g id="node25" class="node"><title>10</title>
<ellipse fill="none" stroke="black" cx="387.041" cy="-105.685" rx="18" ry="18"/>
<text text-anchor="middle" x="387.041" y="-102.885" font-family="Times New Roman,serif" font-size="11.00">10</text>
</g>
<!-- 0&#45;&#45;10 -->
<g id="edge106" class="edge"><title>0&#45;&#45;10</title>
<path fill="none" stroke="#ee0000" stroke-width="3" d="M227.559,-580.1C250.285,-539.046 310.443,-425.909 341.761,-324.506 364.313,-251.484 378.97,-161.267 384.528,-123.561"/>
</g>
<!-- 4 -->
<g id="node4" class="node"><title>4</title>
<ellipse fill="none" stroke="black" cx="551.053" cy="-496.213" rx="18" ry="18"/>
<text text-anchor="middle" x="551.053" y="-493.413" font-family="Times New Roman,serif" font-size="11.00">4</text>
</g>
<!-- 1&#45;&#45;4 -->
<g id="edge3" class="edge"><title>1&#45;&#45;4</title>
<path fill="none" stroke="#0000ee" stroke-width="3" d="M425.578,-773.018C448.989,-721.373 520.306,-564.043 543.604,-512.648"/>
</g>
<!-- 1&#45;&#45;2 -->
<g id="edge8" class="edge"><title>1&#45;&#45;2</title>
<path fill="none" stroke="#ff4040" stroke-width="3" d="M414.086,-771.966C397.567,-698.278 334.252,-415.847 317.725,-342.125"/>
</g>
<!-- 1&#45;&#45;3 -->
<g id="edge53" class="edge"><title>1&#45;&#45;3</title>
<path fill="none" stroke="#ee2c2c" stroke-width="3" d="M435.814,-785.019C485.897,-772.009 627.811,-735.144 677.713,-722.181"/>
</g>
<!-- 6 -->
<g id="node14" class="node"><title>6</title>
<ellipse fill="none" stroke="black" cx="835.023" cy="-456.088" rx="18" ry="18"/>
<text text-anchor="middle" x="835.023" y="-453.288" font-family="Times New Roman,serif" font-size="11.00">6</text>
</g>
<!-- 1&#45;&#45;6 -->
<g id="edge42" class="edge"><title>1&#45;&#45;6</title>
<path fill="none" stroke="#9a32cd" stroke-width="3" d="M432.4,-778.153C496.556,-726.833 756.697,-518.742 820.73,-467.521"/>
</g>
<!-- 11 -->
<g id="node27" class="node"><title>11</title>
<ellipse fill="none" stroke="black" cx="765" cy="-631.604" rx="18" ry="18"/>
<text text-anchor="middle" x="765" y="-628.804" font-family="Times New Roman,serif" font-size="11.00">11</text>
</g>
<!-- 1&#45;&#45;11 -->
<g id="edge112" class="edge"><title>1&#45;&#45;11</title>
<path fill="none" stroke="#ff8247" stroke-width="3" d="M434.781,-782.012C493.528,-755.254 689.95,-665.788 748.434,-639.15"/>
</g>
<!-- 14 -->
<g id="node5" class="node"><title>14</title>
<ellipse fill="none" stroke="black" cx="519.894" cy="-793.524" rx="18" ry="18"/>
<text text-anchor="middle" x="519.894" y="-790.724" font-family="Times New Roman,serif" font-size="11.00">14</text>
</g>
<!-- 4&#45;&#45;14 -->
<g id="edge4" class="edge"><title>4&#45;&#45;14</title>
<path fill="none" stroke="#0000ee" stroke-width="3" d="M549.151,-514.364C543.575,-567.568 527.316,-722.712 521.772,-775.611"/>
</g>
<!-- 4&#45;&#45;5 -->
<g id="edge26" class="edge"><title>4&#45;&#45;5</title>
<path fill="none" stroke="#008b00" stroke-width="3" d="M552.711,-478.154C556.471,-440.499 566.979,-351.093 587.805,-278.818 590.442,-269.666 592.254,-267.773 596.025,-259.026 607.706,-231.928 621.807,-200.668 630.279,-182.038"/>
</g>
<!-- 4&#45;&#45;6 -->
<g id="edge71" class="edge"><title>4&#45;&#45;6</title>
<path fill="none" stroke="#cd6090" stroke-width="3" d="M569.249,-493.642C620.539,-486.395 765.874,-465.859 816.979,-458.637"/>
</g>
<!-- 7 -->
<g id="node17" class="node"><title>7</title>
<ellipse fill="none" stroke="black" cx="512.372" cy="-18" rx="18" ry="18"/>
<text text-anchor="middle" x="512.372" y="-15.2" font-family="Times New Roman,serif" font-size="11.00">7</text>
</g>
<!-- 4&#45;&#45;7 -->
<g id="edge21" class="edge"><title>4&#45;&#45;7</title>
<path fill="none" stroke="#00cdcd" stroke-width="3" d="M549.584,-478.051C543.457,-402.301 519.972,-111.965 513.842,-36.1807"/>
</g>
<!-- 9 -->
<g id="node23" class="node"><title>9</title>
<ellipse fill="none" stroke="black" cx="427.206" cy="-398.899" rx="18" ry="18"/>
<text text-anchor="middle" x="427.206" y="-396.099" font-family="Times New Roman,serif" font-size="11.00">9</text>
</g>
<!-- 4&#45;&#45;9 -->
<g id="edge60" class="edge"><title>4&#45;&#45;9</title>
<path fill="none" stroke="#eec900" stroke-width="3" d="M536.846,-485.05C513.084,-466.379 465.534,-429.016 441.628,-410.232"/>
</g>
<!-- 16 -->
<g id="node6" class="node"><title>16</title>
<ellipse fill="none" stroke="black" cx="440.176" cy="-606.509" rx="18" ry="18"/>
<text text-anchor="middle" x="440.176" y="-603.709" font-family="Times New Roman,serif" font-size="11.00">16</text>
</g>
<!-- 14&#45;&#45;16 -->
<g id="edge5" class="edge"><title>14&#45;&#45;16</title>
<path fill="none" stroke="#0000ee" stroke-width="3" d="M512.82,-776.927C497.692,-741.438 462.348,-658.524 447.234,-623.068"/>
</g>
<!-- 15 -->
<g id="node10" class="node"><title>15</title>
<ellipse fill="none" stroke="black" cx="262.607" cy="-207.544" rx="18" ry="18"/>
<text text-anchor="middle" x="262.607" y="-204.744" font-family="Times New Roman,serif" font-size="11.00">15</text>
</g>
<!-- 14&#45;&#45;15 -->
<g id="edge86" class="edge"><title>14&#45;&#45;15</title>
<path fill="none" stroke="#607b8b" stroke-width="3" d="M509.941,-778.181C491.276,-749.125 450.207,-683.812 420.285,-626.216 356.965,-504.33 348.136,-470.389 293.915,-344.192 290.155,-335.441 288.512,-333.492 285.761,-324.374 275.429,-290.126 268.487,-248.813 265.072,-225.623"/>
</g>
<!-- 17 -->
<g id="node11" class="node"><title>17</title>
<ellipse fill="none" stroke="black" cx="232.414" cy="-483.452" rx="18" ry="18"/>
<text text-anchor="middle" x="232.414" y="-480.652" font-family="Times New Roman,serif" font-size="11.00">17</text>
</g>
<!-- 14&#45;&#45;17 -->
<g id="edge81" class="edge"><title>14&#45;&#45;17</title>
<path fill="none" stroke="#8b864e" stroke-width="3" d="M507.542,-780.2C460.362,-729.313 291.822,-547.528 244.721,-496.726"/>
</g>
<!-- 14&#45;&#45;3 -->
<g id="edge64" class="edge"><title>14&#45;&#45;3</title>
<path fill="none" stroke="#242424" stroke-width="3" d="M536.716,-786.244C570.25,-771.733 645.07,-739.355 678.562,-724.861"/>
</g>
<!-- 19 -->
<g id="node18" class="node"><title>19</title>
<ellipse fill="none" stroke="black" cx="208.756" cy="-768.988" rx="18" ry="18"/>
<text text-anchor="middle" x="208.756" y="-766.188" font-family="Times New Roman,serif" font-size="11.00">19</text>
</g>
<!-- 14&#45;&#45;19 -->
<g id="edge120" class="edge"><title>14&#45;&#45;19</title>
<path fill="none" stroke="#00868b" stroke-width="3" d="M503.044,-786.287C483.214,-778.233 449.08,-765.801 418.306,-761.636 347.962,-752.114 263.198,-761.364 226.797,-766.313"/>
</g>
<!-- 16&#45;&#45;0 -->
<g id="edge6" class="edge"><title>16&#45;&#45;0</title>
<path fill="none" stroke="#0000ee" stroke-width="3" d="M422.04,-605.654C380.382,-603.691 278.243,-598.878 236.643,-596.917"/>
</g>
<!-- 16&#45;&#45;5 -->
<g id="edge76" class="edge"><title>16&#45;&#45;5</title>
<path fill="none" stroke="indigo" stroke-width="3" d="M447.562,-590.027C478.676,-520.607 598.896,-252.374 630.28,-182.349"/>
</g>
<!-- 16&#45;&#45;17 -->
<g id="edge98" class="edge"><title>16&#45;&#45;17</title>
<path fill="none" stroke="#912cee" stroke-width="3" d="M424.56,-597.259C385.962,-574.398 286.417,-515.438 247.928,-492.641"/>
</g>
<!-- 18 -->
<g id="node15" class="node"><title>18</title>
<ellipse fill="none" stroke="black" cx="115.846" cy="-259.218" rx="18" ry="18"/>
<text text-anchor="middle" x="115.846" y="-256.418" font-family="Times New Roman,serif" font-size="11.00">18</text>
</g>
<!-- 16&#45;&#45;18 -->
<g id="edge17" class="edge"><title>16&#45;&#45;18</title>
<path fill="none" stroke="crimson" stroke-width="3" d="M427.857,-593.319C376.483,-538.307 179.574,-327.457 128.176,-272.421"/>
</g>
<!-- 16&#45;&#45;19 -->
<g id="edge93" class="edge"><title>16&#45;&#45;19</title>
<path fill="none" stroke="#cd00cd" stroke-width="3" d="M425.347,-616.92C383.648,-646.197 265.673,-729.027 223.76,-758.454"/>
</g>
<!-- 2&#45;&#45;4 -->
<g id="edge59" class="edge"><title>2&#45;&#45;4</title>
<path fill="none" stroke="#eec900" stroke-width="3" d="M325.364,-338.487C342.042,-358.086 374.413,-393.989 407.241,-418.531 449.515,-450.135 506.277,-476.822 534.158,-489.054"/>
</g>
<!-- 2&#45;&#45;5 -->
<g id="edge9" class="edge"><title>2&#45;&#45;5</title>
<path fill="none" stroke="#ff4040" stroke-width="3" d="M330.276,-316.342C385.864,-289.085 565.79,-200.863 621.328,-173.631"/>
</g>
<!-- 2&#45;&#45;3 -->
<g id="edge14" class="edge"><title>2&#45;&#45;3</title>
<path fill="none" stroke="crimson" stroke-width="3" d="M326.456,-337.521C384.518,-397.347 624.428,-644.545 682.589,-704.474"/>
</g>
<!-- 2&#45;&#45;7 -->
<g id="edge48" class="edge"><title>2&#45;&#45;7</title>
<path fill="none" stroke="#ff1493" stroke-width="3" d="M323.61,-309.243C357.424,-257.071 468.559,-85.5994 502.463,-33.2881"/>
</g>
<!-- 12 -->
<g id="node29" class="node"><title>12</title>
<ellipse fill="none" stroke="black" cx="615.805" cy="-278.844" rx="18" ry="18"/>
<text text-anchor="middle" x="615.805" y="-276.044" font-family="Times New Roman,serif" font-size="11.00">12</text>
</g>
<!-- 2&#45;&#45;12 -->
<g id="edge118" class="edge"><title>2&#45;&#45;12</title>
<path fill="none" stroke="#00868b" stroke-width="3" d="M331.75,-321.724C385.472,-313.614 544.311,-289.636 597.91,-281.545"/>
</g>
<!-- 5&#45;&#45;15 -->
<g id="edge10" class="edge"><title>5&#45;&#45;15</title>
<path fill="none" stroke="#ff4040" stroke-width="3" d="M619.713,-167.575C556.183,-174.685 343.768,-198.46 280.522,-205.539"/>
</g>
<!-- 5&#45;&#45;6 -->
<g id="edge32" class="edge"><title>5&#45;&#45;6</title>
<path fill="none" stroke="darkorange" stroke-width="3" d="M648.135,-180.761C682.214,-230.967 790.87,-391.041 824.8,-441.027"/>
</g>
<!-- 5&#45;&#45;7 -->
<g id="edge77" class="edge"><title>5&#45;&#45;7</title>
<path fill="none" stroke="indigo" stroke-width="3" d="M626.009,-151.668C602.101,-123.546 548.19,-60.1323 524.233,-31.9517"/>
</g>
<!-- 8 -->
<g id="node20" class="node"><title>8</title>
<ellipse fill="none" stroke="black" cx="769.506" cy="-254.129" rx="18" ry="18"/>
<text text-anchor="middle" x="769.506" y="-251.329" font-family="Times New Roman,serif" font-size="11.00">8</text>
</g>
<!-- 5&#45;&#45;8 -->
<g id="edge27" class="edge"><title>5&#45;&#45;8</title>
<path fill="none" stroke="#008b00" stroke-width="3" d="M652.917,-175.71C678.186,-192.706 728.749,-226.715 754.169,-243.813"/>
</g>
<!-- 5&#45;&#45;10 -->
<g id="edge66" class="edge"><title>5&#45;&#45;10</title>
<path fill="none" stroke="#242424" stroke-width="3" d="M620.176,-161.34C574.133,-150.348 450.676,-120.877 404.655,-109.89"/>
</g>
<!-- 15&#45;&#45;4 -->
<g id="edge70" class="edge"><title>15&#45;&#45;4</title>
<path fill="none" stroke="#cd6090" stroke-width="3" d="M276.456,-219.614C307.757,-247.066 385.993,-316.662 447.17,-379.267 482.093,-415.005 520.481,-459.784 539.311,-482.146"/>
</g>
<!-- 15&#45;&#45;16 -->
<g id="edge92" class="edge"><title>15&#45;&#45;16</title>
<path fill="none" stroke="#cd00cd" stroke-width="3" d="M274.325,-221.3C289.424,-239.496 315.838,-272.978 333.606,-304.687 389.972,-405.279 424.978,-541.095 436.219,-588.946"/>
</g>
<!-- 15&#45;&#45;17 -->
<g id="edge11" class="edge"><title>15&#45;&#45;17</title>
<path fill="none" stroke="#ff4040" stroke-width="3" d="M260.626,-225.647C255.155,-275.64 239.882,-415.21 234.402,-465.282"/>
</g>
<!-- 15&#45;&#45;18 -->
<g id="edge87" class="edge"><title>15&#45;&#45;18</title>
<path fill="none" stroke="#607b8b" stroke-width="3" d="M245.485,-213.573C217.205,-223.53 161.067,-243.296 132.86,-253.227"/>
</g>
<!-- 20 -->
<g id="node21" class="node"><title>20</title>
<ellipse fill="none" stroke="black" cx="18" cy="-475.542" rx="18" ry="18"/>
<text text-anchor="middle" x="18" y="-472.742" font-family="Times New Roman,serif" font-size="11.00">20</text>
</g>
<!-- 15&#45;&#45;20 -->
<g id="edge126" class="edge"><title>15&#45;&#45;20</title>
<path fill="none" stroke="#ffff00" stroke-width="3" d="M250.141,-221.203C208.083,-267.282 71.7335,-416.67 30.151,-462.229"/>
</g>
<!-- 17&#45;&#45;1 -->
<g id="edge12" class="edge"><title>17&#45;&#45;1</title>
<path fill="none" stroke="#ff4040" stroke-width="3" d="M241.875,-499.057C273.718,-551.58 376.789,-721.585 408.605,-774.061"/>
</g>
<!-- 17&#45;&#45;6 -->
<g id="edge82" class="edge"><title>17&#45;&#45;6</title>
<path fill="none" stroke="#8b864e" stroke-width="3" d="M250.741,-482.543C299.575,-480.13 436.902,-473.387 551.204,-468.214 651.466,-463.676 771.672,-458.69 816.759,-456.836"/>
</g>
<!-- 17&#45;&#45;18 -->
<g id="edge104" class="edge"><title>17&#45;&#45;18</title>
<path fill="none" stroke="#ee0000" stroke-width="3" d="M224.031,-467.326C202.523,-425.953 145.577,-316.41 124.153,-275.198"/>
</g>
<!-- 17&#45;&#45;19 -->
<g id="edge23" class="edge"><title>17&#45;&#45;19</title>
<path fill="none" stroke="#00cdcd" stroke-width="3" d="M236.566,-501.363C241.271,-523.563 248.101,-562.594 246.567,-596.333 243.933,-654.269 224.579,-720.766 214.629,-751.605"/>
</g>
<!-- 17&#45;&#45;20 -->
<g id="edge99" class="edge"><title>17&#45;&#45;20</title>
<path fill="none" stroke="#912cee" stroke-width="3" d="M214.133,-482.778C173.624,-481.283 76.7004,-477.707 36.2345,-476.214"/>
</g>
<!-- 3&#45;&#45;4 -->
<g id="edge20" class="edge"><title>3&#45;&#45;4</title>
<path fill="none" stroke="#00cdcd" stroke-width="3" d="M685.416,-702.387C659.058,-661.942 587.476,-552.103 561.039,-511.537"/>
</g>
<!-- 3&#45;&#45;5 -->
<g id="edge65" class="edge"><title>3&#45;&#45;5</title>
<path fill="none" stroke="#242424" stroke-width="3" d="M690.593,-700.1C678.43,-654.02 646.506,-525.358 638.432,-415.825 633.954,-355.074 644.221,-339.784 643.805,-278.87 643.575,-245.181 640.978,-205.937 639.278,-183.59"/>
</g>
<!-- 3&#45;&#45;6 -->
<g id="edge15" class="edge"><title>3&#45;&#45;6</title>
<path fill="none" stroke="crimson" stroke-width="3" d="M702.703,-700.893C712.099,-679.851 729.075,-642.706 745.276,-611.731 772.599,-559.492 808.495,-499.552 825.413,-471.756"/>
</g>
<!-- 3&#45;&#45;8 -->
<g id="edge54" class="edge"><title>3&#45;&#45;8</title>
<path fill="none" stroke="#ee2c2c" stroke-width="3" d="M698.195,-699.719C710.003,-625.939 754.861,-345.641 766.652,-271.96"/>
</g>
<!-- 13 -->
<g id="node31" class="node"><title>13</title>
<ellipse fill="none" stroke="black" cx="666.431" cy="-416.015" rx="18" ry="18"/>
<text text-anchor="middle" x="666.431" y="-413.215" font-family="Times New Roman,serif" font-size="11.00">13</text>
</g>
<!-- 3&#45;&#45;13 -->
<g id="edge124" class="edge"><title>3&#45;&#45;13</title>
<path fill="none" stroke="#ffff00" stroke-width="3" d="M693.611,-699.641C688.483,-646.128 673.344,-488.15 668.18,-434.265"/>
</g>
<!-- 6&#45;&#45;16 -->
<g id="edge16" class="edge"><title>6&#45;&#45;16</title>
<path fill="none" stroke="crimson" stroke-width="3" d="M818.057,-462.551C753.256,-487.237 521.771,-575.424 457.078,-600.069"/>
</g>
<!-- 6&#45;&#45;7 -->
<g id="edge38" class="edge"><title>6&#45;&#45;7</title>
<path fill="none" stroke="#9a32cd" stroke-width="3" d="M823.145,-442.42C789.45,-403.414 690.971,-287.767 617.841,-185.177 579.396,-131.245 538.973,-63.6131 521.405,-33.5918"/>
</g>
<!-- 6&#45;&#45;8 -->
<g id="edge83" class="edge"><title>6&#45;&#45;8</title>
<path fill="none" stroke="#8b864e" stroke-width="3" d="M829.437,-438.869C817.059,-400.713 787.443,-309.419 775.078,-271.304"/>
</g>
<!-- 6&#45;&#45;9 -->
<g id="edge33" class="edge"><title>6&#45;&#45;9</title>
<path fill="none" stroke="darkorange" stroke-width="3" d="M816.97,-455.479C786.016,-454.282 720.867,-451.099 666.242,-444.014 582.689,-433.178 484.193,-411.832 444.787,-402.938"/>
</g>
<!-- 6&#45;&#45;11 -->
<g id="edge72" class="edge"><title>6&#45;&#45;11</title>
<path fill="none" stroke="#cd6090" stroke-width="3" d="M828.309,-472.917C814.925,-506.465 785.062,-581.319 771.694,-614.826"/>
</g>
<!-- 18&#45;&#45;0 -->
<g id="edge105" class="edge"><title>18&#45;&#45;0</title>
<path fill="none" stroke="#ee0000" stroke-width="3" d="M121.224,-276.854C138.975,-335.063 195.57,-520.651 213.243,-578.604"/>
</g>
<!-- 18&#45;&#45;2 -->
<g id="edge18" class="edge"><title>18&#45;&#45;2</title>
<path fill="none" stroke="crimson" stroke-width="3" d="M133.063,-264.892C170.494,-277.227 258.92,-306.367 296.442,-318.732"/>
</g>
<!-- 18&#45;&#45;7 -->
<g id="edge88" class="edge"><title>18&#45;&#45;7</title>
<path fill="none" stroke="#607b8b" stroke-width="3" d="M130.302,-247.969C167.96,-218.955 272.733,-140.069 367.247,-85.8818 411.888,-60.2876 467.798,-36.235 495.376,-24.862"/>
</g>
<!-- 18&#45;&#45;19 -->
<g id="edge110" class="edge"><title>18&#45;&#45;19</title>
<path fill="none" stroke="#ff8247" stroke-width="3" d="M119.098,-277.062C133.455,-355.833 191.081,-672.014 205.482,-751.025"/>
</g>
<!-- 18&#45;&#45;20 -->
<g id="edge29" class="edge"><title>18&#45;&#45;20</title>
<path fill="none" stroke="#008b00" stroke-width="3" d="M108.331,-275.833C90.1176,-316.1 43.7804,-418.545 25.541,-458.87"/>
</g>
<!-- 7&#45;&#45;17 -->
<g id="edge22" class="edge"><title>7&#45;&#45;17</title>
<path fill="none" stroke="#00cdcd" stroke-width="3" d="M504.328,-34.3726C480.317,-82.848 406.302,-229.426 333.513,-344.285 303.46,-391.707 263.024,-444.532 243.663,-469.249"/>
</g>
<!-- 7&#45;&#45;8 -->
<g id="edge44" class="edge"><title>7&#45;&#45;8</title>
<path fill="none" stroke="#ff1493" stroke-width="3" d="M526.198,-29.7774C552.27,-52.0714 610.344,-102.133 657.779,-145.922 694.287,-179.623 736.033,-220.779 756.627,-241.263"/>
</g>
<!-- 7&#45;&#45;9 -->
<g id="edge89" class="edge"><title>7&#45;&#45;9</title>
<path fill="none" stroke="#607b8b" stroke-width="3" d="M508.435,-35.6076C494.204,-99.2529 445.52,-316.988 431.199,-381.039"/>
</g>
<!-- 7&#45;&#45;10 -->
<g id="edge39" class="edge"><title>7&#45;&#45;10</title>
<path fill="none" stroke="#9a32cd" stroke-width="3" d="M497.502,-28.403C473.381,-45.2788 425.999,-78.4289 401.891,-95.296"/>
</g>
<!-- 7&#45;&#45;12 -->
<g id="edge78" class="edge"><title>7&#45;&#45;12</title>
<path fill="none" stroke="indigo" stroke-width="3" d="M519.158,-35.1147C537.945,-82.4913 590.473,-214.961 609.128,-262.005"/>
</g>
<!-- 19&#45;&#45;0 -->
<g id="edge35" class="edge"><title>19&#45;&#45;0</title>
<path fill="none" stroke="darkorange" stroke-width="3" d="M209.787,-750.809C211.672,-717.598 215.65,-647.484 217.536,-614.261"/>
</g>
<!-- 19&#45;&#45;1 -->
<g id="edge111" class="edge"><title>19&#45;&#45;1</title>
<path fill="none" stroke="#ff8247" stroke-width="3" d="M226.963,-770.784C266.644,-774.699 360.524,-783.96 400.03,-787.857"/>
</g>
<!-- 19&#45;&#45;3 -->
<g id="edge24" class="edge"><title>19&#45;&#45;3</title>
<path fill="none" stroke="#00cdcd" stroke-width="3" d="M226.942,-767.068C303.716,-758.96 600.86,-727.581 677.314,-719.507"/>
</g>
<!-- 19&#45;&#45;8 -->
<g id="edge94" class="edge"><title>19&#45;&#45;8</title>
<path fill="none" stroke="#cd00cd" stroke-width="3" d="M222.064,-756.769C298.356,-686.72 679.451,-336.814 756.073,-266.462"/>
</g>
<!-- 19&#45;&#45;20 -->
<g id="edge116" class="edge"><title>19&#45;&#45;20</title>
<path fill="none" stroke="#00868b" stroke-width="3" d="M198.769,-753.625C165.805,-702.916 60.7071,-541.24 27.8884,-490.753"/>
</g>
<!-- 8&#45;&#45;18 -->
<g id="edge28" class="edge"><title>8&#45;&#45;18</title>
<path fill="none" stroke="#008b00" stroke-width="3" d="M751.058,-253.507C722.21,-252.587 664.666,-250.957 615.831,-250.844 427.443,-250.408 199.182,-256.728 134.006,-258.663"/>
</g>
<!-- 8&#45;&#45;9 -->
<g id="edge50" class="edge"><title>8&#45;&#45;9</title>
<path fill="none" stroke="#ee2c2c" stroke-width="3" d="M752.531,-261.308C694.119,-286.012 501.828,-367.339 443.879,-391.847"/>
</g>
<!-- 8&#45;&#45;10 -->
<g id="edge95" class="edge"><title>8&#45;&#45;10</title>
<path fill="none" stroke="#cd00cd" stroke-width="3" d="M752.579,-247.559C689.403,-223.039 467.78,-137.022 404.207,-112.348"/>
</g>
<!-- 8&#45;&#45;11 -->
<g id="edge45" class="edge"><title>8&#45;&#45;11</title>
<path fill="none" stroke="#ff1493" stroke-width="3" d="M769.289,-272.335C768.526,-336.25 765.975,-549.952 765.215,-613.58"/>
</g>
<!-- 8&#45;&#45;13 -->
<g id="edge84" class="edge"><title>8&#45;&#45;13</title>
<path fill="none" stroke="#8b864e" stroke-width="3" d="M759.809,-269.359C740.164,-300.213 695.864,-369.789 676.178,-400.708"/>
</g>
<!-- 20&#45;&#45;0 -->
<g id="edge122" class="edge"><title>20&#45;&#45;0</title>
<path fill="none" stroke="#ffff00" stroke-width="3" d="M33.7382,-484.999C71.2314,-507.529 165.484,-564.167 202.903,-586.652"/>
</g>
<!-- 20&#45;&#45;1 -->
<g id="edge41" class="edge"><title>20&#45;&#45;1</title>
<path fill="none" stroke="#9a32cd" stroke-width="3" d="M32.2379,-486.72C94.3155,-535.46 340.995,-729.139 403.561,-778.261"/>
</g>
<!-- 20&#45;&#45;4 -->
<g id="edge30" class="edge"><title>20&#45;&#45;4</title>
<path fill="none" stroke="#008b00" stroke-width="3" d="M35.6254,-479.815C72.0566,-488.353 158.422,-507.08 232.196,-511.451 346.715,-518.236 484.512,-504.086 533.066,-498.42"/>
</g>
<!-- 20&#45;&#45;2 -->
<g id="edge117" class="edge"><title>20&#45;&#45;2</title>
<path fill="none" stroke="#00868b" stroke-width="3" d="M34.3227,-467.203C86.0322,-440.785 245.849,-359.135 297.488,-332.753"/>
</g>
<!-- 20&#45;&#45;9 -->
<g id="edge100" class="edge"><title>20&#45;&#45;9</title>
<path fill="none" stroke="#912cee" stroke-width="3" d="M35.8462,-472.199C103.223,-459.58 341.73,-414.908 409.265,-402.259"/>
</g>
<!-- 9&#45;&#45;14 -->
<g id="edge90" class="edge"><title>9&#45;&#45;14</title>
<path fill="none" stroke="#607b8b" stroke-width="3" d="M431.368,-416.622C446.762,-482.161 500.368,-710.392 515.743,-775.85"/>
</g>
<!-- 9&#45;&#45;19 -->
<g id="edge34" class="edge"><title>9&#45;&#45;19</title>
<path fill="none" stroke="darkorange" stroke-width="3" d="M417.819,-414.801C381.968,-475.539 253.898,-692.51 218.107,-753.145"/>
</g>
<!-- 9&#45;&#45;10 -->
<g id="edge56" class="edge"><title>9&#45;&#45;10</title>
<path fill="none" stroke="#eec900" stroke-width="3" d="M424.754,-380.999C417.583,-328.652 396.706,-176.246 389.512,-123.724"/>
</g>
<!-- 9&#45;&#45;11 -->
<g id="edge101" class="edge"><title>9&#45;&#45;11</title>
<path fill="none" stroke="#912cee" stroke-width="3" d="M443.704,-406.605C471.014,-419.621 526.967,-447.404 570.959,-476.522 642.881,-524.126 720.858,-592.004 751.532,-619.422"/>
</g>
<!-- 9&#45;&#45;12 -->
<g id="edge51" class="edge"><title>9&#45;&#45;12</title>
<path fill="none" stroke="#ee2c2c" stroke-width="3" d="M442.639,-389.074C478.093,-366.506 565.018,-311.173 600.423,-288.636"/>
</g>
<!-- 10&#45;&#45;15 -->
<g id="edge96" class="edge"><title>10&#45;&#45;15</title>
<path fill="none" stroke="#cd00cd" stroke-width="3" d="M372.767,-117.37C348.764,-137.018 300.605,-176.44 276.715,-195.996"/>
</g>
<!-- 10&#45;&#45;20 -->
<g id="edge40" class="edge"><title>10&#45;&#45;20</title>
<path fill="none" stroke="#9a32cd" stroke-width="3" d="M375.58,-119.983C356.808,-143.173 318.021,-190.145 282.365,-227.385 190.942,-322.868 71.6153,-428.687 31.6841,-463.633"/>
</g>
<!-- 10&#45;&#45;11 -->
<g id="edge62" class="edge"><title>10&#45;&#45;11</title>
<path fill="none" stroke="#242424" stroke-width="3" d="M397.744,-120.578C452.404,-196.636 699.951,-541.089 754.391,-616.841"/>
</g>
<!-- 10&#45;&#45;12 -->
<g id="edge107" class="edge"><title>10&#45;&#45;12</title>
<path fill="none" stroke="#ee0000" stroke-width="3" d="M401.699,-116.781C443.019,-148.057 560.099,-236.678 601.269,-267.841"/>
</g>
<!-- 10&#45;&#45;13 -->
<g id="edge57" class="edge"><title>10&#45;&#45;13</title>
<path fill="none" stroke="#eec900" stroke-width="3" d="M399.406,-119.42C445.662,-170.798 608.193,-351.328 654.209,-402.439"/>
</g>
<!-- 11&#45;&#45;0 -->
<g id="edge46" class="edge"><title>11&#45;&#45;0</title>
<path fill="none" stroke="#ff1493" stroke-width="3" d="M746.993,-632.903C697.747,-636.21 556.725,-644.034 440.046,-634.508 363.42,-628.252 273.572,-608.86 236.227,-600.253"/>
</g>
<!-- 11&#45;&#45;14 -->
<g id="edge63" class="edge"><title>11&#45;&#45;14</title>
<path fill="none" stroke="#242424" stroke-width="3" d="M749.668,-641.733C705.65,-670.811 579.232,-754.325 535.221,-783.399"/>
</g>
<!-- 11&#45;&#45;16 -->
<g id="edge102" class="edge"><title>11&#45;&#45;16</title>
<path fill="none" stroke="#912cee" stroke-width="3" d="M746.606,-630.183C689.433,-625.766 515.265,-612.31 458.368,-607.914"/>
</g>
<!-- 11&#45;&#45;12 -->
<g id="edge68" class="edge"><title>11&#45;&#45;12</title>
<path fill="none" stroke="#cd6090" stroke-width="3" d="M760.884,-613.818C751.201,-573.646 724.858,-473.397 686.364,-396.35 667.327,-358.247 640.415,-315.979 625.949,-293.999"/>
</g>
<!-- 11&#45;&#45;13 -->
<g id="edge113" class="edge"><title>11&#45;&#45;13</title>
<path fill="none" stroke="#ff8247" stroke-width="3" d="M757.429,-615.045C739.082,-574.915 692.402,-472.818 674.028,-432.63"/>
</g>
<!-- 12&#45;&#45;1 -->
<g id="edge52" class="edge"><title>12&#45;&#45;1</title>
<path fill="none" stroke="#ee2c2c" stroke-width="3" d="M608.654,-295.473C594.06,-329.429 559.821,-409.201 531.361,-476.308 527.643,-485.077 526.505,-487.185 523.054,-496.062 482.648,-599.991 439.276,-726.754 423.875,-772.306"/>
</g>
<!-- 12&#45;&#45;14 -->
<g id="edge119" class="edge"><title>12&#45;&#45;14</title>
<path fill="none" stroke="#00868b" stroke-width="3" d="M612.979,-296.638C607.036,-333.801 592.67,-422.349 579.053,-496.365 559.493,-602.678 533.215,-729.793 523.609,-775.806"/>
</g>
<!-- 12&#45;&#45;15 -->
<g id="edge69" class="edge"><title>12&#45;&#45;15</title>
<path fill="none" stroke="#cd6090" stroke-width="3" d="M597.804,-275.21C537.216,-262.979 341.106,-223.391 280.572,-211.171"/>
</g>
<!-- 12&#45;&#45;17 -->
<g id="edge108" class="edge"><title>12&#45;&#45;17</title>
<path fill="none" stroke="#ee0000" stroke-width="3" d="M599.086,-286.261C563.404,-302.226 477.358,-341.441 407.574,-378.934 347.056,-411.449 277.67,-454.706 247.611,-473.752"/>
</g>
<!-- 12&#45;&#45;13 -->
<g id="edge74" class="edge"><title>12&#45;&#45;13</title>
<path fill="none" stroke="indigo" stroke-width="3" d="M622.115,-295.939C631.816,-322.225 650.293,-372.289 660.042,-398.704"/>
</g>
<!-- 13&#45;&#45;14 -->
<g id="edge80" class="edge"><title>13&#45;&#45;14</title>
<path fill="none" stroke="#8b864e" stroke-width="3" d="M659.754,-433.217C635.287,-496.25 550.7,-714.163 526.443,-776.652"/>
</g>
<!-- 13&#45;&#45;16 -->
<g id="edge75" class="edge"><title>13&#45;&#45;16</title>
<path fill="none" stroke="indigo" stroke-width="3" d="M654.84,-429.814C637.591,-449.944 603.655,-488.018 570.745,-516.119 531.957,-549.239 481.042,-581.695 455.784,-597.15"/>
</g>
<!-- 13&#45;&#45;2 -->
<g id="edge58" class="edge"><title>13&#45;&#45;2</title>
<path fill="none" stroke="#eec900" stroke-width="3" d="M648.942,-411.474C588.9,-395.883 391.558,-344.641 331.355,-329.008"/>
</g>
<!-- 13&#45;&#45;15 -->
<g id="edge125" class="edge"><title>13&#45;&#45;15</title>
<path fill="none" stroke="#ffff00" stroke-width="3" d="M650.352,-407.714C585.514,-374.242 343.654,-249.384 278.733,-215.869"/>
</g>
<!-- 13&#45;&#45;18 -->
<g id="edge114" class="edge"><title>13&#45;&#45;18</title>
<path fill="none" stroke="#ff8247" stroke-width="3" d="M649.448,-409.296C599.017,-389.553 445.446,-330.946 313.827,-296.44 248.364,-279.278 168.752,-266.794 133.78,-261.721"/>
</g>
</g>
</svg>
